<svg width="64" height="64" viewBox="0 0 64 64" fill="none" xmlns="http://www.w3.org/2000/svg">
<g style="mix-blend-mode:multiply" opacity="0.8">
<ellipse cx="32" cy="56" rx="19" ry="3" fill="#FFC149"/>
</g>
<path d="M53.0001 27.2222C53.0001 43.1989 32.0001 55 32.0001 55C32.0001 55 11.0001 43.1989 11.0001 27.2222C11.0001 14.9492 20.4021 5 32.0001 5C43.5981 5 53.0001 14.9492 53.0001 27.2222Z" fill="#FF7E55"/>
<circle cx="32.0001" cy="26" r="9" fill="white"/>
<g style="mix-blend-mode:multiply" opacity="0.8">
<path d="M59.3333 40.8889C59.3333 45.9804 53.8321 50.0118 51.5955 51.4404C51.0232 51.806 50.3102 51.806 49.7378 51.4404C47.5012 50.0118 42 45.9804 42 40.8889C42 35.9797 45.8802 32 50.6667 32C55.4531 32 59.3333 35.9797 59.3333 40.8889Z" fill="#FFC149"/>
</g>
</svg>
